# xmcd CD database file
#
# Track frame offsets:
#	150
#	21192
#	41957
#	61557
#	78727
#	94905
#	114775
#	134962
#	168802
#	187897
#	207400
#	223005
#	243060
#	262162
#	287115
#	317140
#
# Disc length: 4440 seconds
#
# Revision: 1
# Processed by: cddbd v1.5.1PL0 Copyright (c) Steve Scherf et al.
# Submitted via: Feurio! 1.68 - http://www.feurio.com
#
DISCID=eb115610
DTITLE=2 Remarks - You've got a friend
DYEAR=1997
DGENRE=blues
TTITLE0=Words don't come easy
TTITLE1=You've Got A Friend
TTITLE2=Killing Me Soflty
TTITLE3=Easy
TTITLE4=Forever Love
TTITLE5=You
TTITLE6=A Whiter Shade Of Pale
TTITLE7=Stairway To Heaven
TTITLE8=Wonderwall
TTITLE9=It's Probably Me
TTITLE10=Yesterday
TTITLE11=I'll Be There
TTITLE12=How Can I Fall
TTITLE13=Take Trouble
TTITLE14=Jesus To A Child
TTITLE15=How Deep Is Your Love
EXTD=
EXTT0=
EXTT1=
EXTT2=
EXTT3=
EXTT4=
EXTT5=
EXTT6=
EXTT7=
EXTT8=
EXTT9=
EXTT10=
EXTT11=
EXTT12=
EXTT13=
EXTT14=
EXTT15=
PLAYORDER=
